<svg width="1920" height="1452" viewBox="0 0 1920 1452" fill="none" xmlns="http://www.w3.org/2000/svg">
<g opacity="0.1">
<path d="M110.349 -264.13L111.067 -220.931C116.424 101.378 501.62 285.898 835.676 126.178L882.141 103.962C1196.03 -46.116 1557.58 128.753 1559.97 431.804L1560.72 527.287C1562.47 748.496 1801.66 893.753 2047.07 822.632V822.632" stroke="#FAFAFA" stroke-width="0.653416"/>
<path d="M93.5984 -239.533L94.3205 -196.329C99.7076 126.002 484.809 310.57 818.735 150.863L865.183 128.648C1178.95 -21.4184 1540.41 153.496 1542.83 456.568L1543.6 552.064C1545.36 773.288 1784.5 918.576 2029.82 847.467V847.467" stroke="#FAFAFA" stroke-width="0.653416"/>
<path d="M76.6963 -214.958L77.4184 -171.754C82.8055 150.577 467.907 335.145 801.833 175.438L848.281 153.223C1162.05 3.15652 1523.51 178.071 1525.93 481.143L1526.69 576.639C1528.46 797.863 1767.6 943.151 2012.92 872.042V872.042" stroke="#FAFAFA" stroke-width="0.653416"/>
<path d="M59.7896 -190.384L60.5116 -147.18C65.8987 175.151 451 359.719 784.926 200.012L831.374 177.797C1145.14 27.7306 1506.61 202.645 1509.03 505.717L1509.79 601.213C1511.55 822.437 1750.69 967.725 1996.01 896.616V896.616" stroke="#FAFAFA" stroke-width="0.653416"/>
<path d="M42.8869 -165.809L43.609 -122.606C48.9961 199.725 434.098 384.294 768.024 224.586L814.472 202.372C1128.24 52.3051 1489.7 227.22 1492.12 530.291L1492.88 625.788C1494.65 847.011 1733.79 992.3 1979.11 921.19V921.19" stroke="#FAFAFA" stroke-width="0.653416"/>
<path d="M25.9786 -141.234L26.7007 -98.0307C32.0878 224.3 417.189 408.869 751.115 249.161L797.564 226.947C1111.33 76.88 1472.8 251.794 1475.21 554.866L1475.98 650.363C1477.74 871.586 1716.88 1016.87 1962.2 945.765V945.765" stroke="#FAFAFA" stroke-width="0.653416"/>
<path d="M9.07631 -116.66L9.79837 -73.4562C15.1855 248.875 400.287 433.443 734.213 273.736L780.661 251.521C1094.43 101.454 1455.89 276.369 1458.31 579.441L1459.07 674.937C1460.84 896.161 1699.98 1041.45 1945.3 970.34V970.34" stroke="#FAFAFA" stroke-width="0.653416"/>
<path d="M-7.82756 -92.0859L-7.1055 -48.8823C-1.71838 273.449 383.383 458.017 717.309 298.31L763.757 276.095C1077.53 126.028 1438.99 300.943 1441.41 604.015L1442.17 699.511C1443.94 920.735 1683.08 1066.02 1928.39 994.913V994.913" stroke="#FAFAFA" stroke-width="0.653416"/>
<path d="M-24.7335 -67.5107L-24.0114 -24.3071C-18.6243 298.024 366.477 482.592 700.403 322.885L746.851 300.67C1060.62 150.604 1422.08 325.518 1424.5 628.59L1425.26 724.086C1427.03 945.31 1666.17 1090.6 1911.49 1019.49V1019.49" stroke="#FAFAFA" stroke-width="0.653416"/>
</g>
</svg>
